<?xml version="1.0" standalone="no"?>
<!DOCTYPE svg PUBLIC "-//W3C//DTD SVG 20010904//EN"
 "http://www.w3.org/TR/2001/REC-SVG-20010904/DTD/svg10.dtd">
<svg version="1.0" xmlns="http://www.w3.org/2000/svg"
 width="113.000000pt" height="51.000000pt" viewBox="0 0 113.000000 51.000000"
 preserveAspectRatio="xMidYMid meet">
<metadata>
Created by potrace 1.10, written by Peter Selinger 2001-2011
</metadata>
<g transform="translate(0.000000,51.000000) scale(0.100000,-0.100000)"
fill="#000000" stroke="none">
<path d="M61 433 c1 -71 13 -134 24 -131 6 2 9 8 9 15 -1 6 -5 37 -9 68 l-7
58 44 -54 c120 -147 310 -253 558 -310 103 -24 383 -38 394 -20 5 8 -17 11
-81 11 -359 0 -673 123 -856 333 l-52 60 68 -7 c39 -4 67 -3 67 3 0 15 -28 21
-96 21 l-64 0 1 -47z"/>
</g>
</svg>
