<?xml version="1.0" standalone="no"?>
<!DOCTYPE svg PUBLIC "-//W3C//DTD SVG 20010904//EN"
 "http://www.w3.org/TR/2001/REC-SVG-20010904/DTD/svg10.dtd">
<svg version="1.0" xmlns="http://www.w3.org/2000/svg"
 width="91.000000pt" height="63.000000pt" viewBox="0 0 91.000000 63.000000"
 preserveAspectRatio="xMidYMid meet">
<metadata>
Created by potrace 1.10, written by Peter Selinger 2001-2011
</metadata>
<g transform="translate(0.000000,63.000000) scale(0.100000,-0.100000)"
fill="#000000" stroke="none">
<path d="M229 556 c-70 -20 -145 -65 -190 -114 -55 -59 -41 -66 16 -8 69 71
158 109 268 114 101 5 163 -13 197 -55 32 -40 26 -48 -32 -44 -73 5 -120 -12
-162 -59 -67 -74 -40 -140 57 -140 90 0 177 71 177 145 0 33 10 32 61 -7 69
-54 109 -139 145 -317 5 -24 5 -24 -20 -8 -29 20 -36 21 -36 7 0 -6 15 -18 34
-27 34 -16 35 -16 59 13 14 16 23 33 20 38 -3 5 -14 -2 -24 -15 l-19 -24 0 25
c0 39 -28 138 -57 203 -26 58 -110 147 -139 147 -8 0 -20 15 -28 33 -18 43
-53 73 -105 92 -52 18 -158 18 -222 1z m299 -126 c45 0 14 -86 -49 -132 -67
-50 -161 -41 -167 15 -8 67 93 137 173 121 11 -2 30 -4 43 -4z"/>
</g>
</svg>
