<?xml version="1.0" encoding="UTF-8"?>
<svg id="Layer_2" data-name="Layer 2" xmlns="http://www.w3.org/2000/svg" viewBox="0 0 49.29 49.29">
  <defs>
    <style>
      .cls-1 {
        fill: #1877f2;
      }

      .cls-2 {
        fill: #fff;
      }
    </style>
  </defs>
  <g id="Layer_1-2" data-name="Layer 1">
    <g>
      <path class="cls-1" d="M24.64,0C11.03,0,0,11.03,0,24.64s11.03,24.64,24.64,24.64,24.64-11.03,24.64-24.64S38.25,0,24.64,0Z"/>
      <path class="cls-2" d="M27.98,31.18h6.38l1-6.48h-7.38v-3.54c0-2.69.88-5.08,3.4-5.08h4.05v-5.65c-.71-.1-2.21-.31-5.05-.31-5.93,0-9.41,3.13-9.41,10.27v4.31h-6.1v6.48h6.1v17.81c1.21.18,2.43.3,3.69.3,1.13,0,2.24-.1,3.34-.25v-17.86Z"/>
    </g>
  </g>
</svg>