<?xml version="1.0" encoding="UTF-8"?>
<svg id="Layer_2" data-name="Layer 2" xmlns="http://www.w3.org/2000/svg" viewBox="0 0 49.28 49.28">
  <defs>
    <style>
      .cls-1 {
        fill: #8e24aa;
      }

      .cls-2 {
        fill: #f50057;
      }

      .cls-3 {
        fill: #ff1744;
      }

      .cls-4 {
        fill: #4928f4;
      }

      .cls-5 {
        fill: #304ffe;
      }

      .cls-6 {
        fill: #ff5722;
      }

      .cls-7 {
        fill: #673ab7;
      }

      .cls-8 {
        fill: #6200ea;
      }

      .cls-9 {
        fill: #ff6f00;
      }

      .cls-10 {
        fill: none;
        stroke: #fff;
        stroke-linecap: round;
        stroke-linejoin: round;
        stroke-width: 2.08px;
      }

      .cls-11 {
        fill: #ff9800;
      }

      .cls-12 {
        fill: #ffc107;
      }

      .cls-13 {
        fill: #fff;
      }

      .cls-14 {
        fill: #c2185b;
      }

      .cls-15 {
        fill: #ffecb3;
      }

      .cls-16 {
        fill: #ffd54f;
      }

      .cls-17 {
        fill: #ffe082;
      }

      .cls-18 {
        fill: #d81b60;
      }
    </style>
  </defs>
  <g id="Layer_1-2" data-name="Layer 1">
    <g>
      <g>
        <path class="cls-5" d="M46.79,13.84l-.18.6-.42,1.37-.45,1.51-.94,3.1-.9,3.05-.69,2.3c0,.35,0,.71-.04,1.06-.1,1.32-.37,2.58-.81,3.76-.26.73-.58,1.43-.97,2.09-.13.27-.3.53-.46.77-.55.87-1.21,1.67-1.94,2.37-.57.56-1.18,1.08-1.85,1.52,0,.01-.01.01-.01.01h-.01c-.11.09-.24.17-.37.24-.43.29-.88.54-1.35.76-.32.16-.63.3-.96.43-.07.04-.15.06-.22.09-.79.37-1.69.62-2.6.74-.06.02-.1.02-.15.03-.55.1-1.09.18-1.64.22-.25.03-.51.04-.76.04l-.97-.05-4.7-.25h-.02l-2.36-.12c-.18,0-.37,0-.55-.02-.75-.02-1.46-.11-2.18-.26h-.01c-1.31-.25-2.56-.69-3.73-1.28-.64-.33-1.27-.7-1.87-1.12-.24-.18-.48-.38-.71-.58-.66-.55-1.25-1.14-1.8-1.75-.08-.08-.15-.16-.22-.25-.08-.08-.17-.17-.24-.26-.52-.66-.96-1.33-1.32-2.05-.33-.63-.59-1.3-.79-2.04-.09-.27-.15-.51-.21-.79-.01-.01-.03-.04-.03-.07-.13-.56-.26-1.15-.33-1.74-.08-.46-.12-.91-.12-1.38-.03-.18-.03-.37-.03-.55l2.63-4.05,2.57-3.96h0s0-.01,0-.01l1.16-1.8,1.06-1.62.35-.56v-1.42c.03-.31.05-.64.03-.95-.01-.96-.2-1.89-.52-2.79-.3-.95-.73-1.84-1.17-2.67-.38-.69-.78-1.34-1.14-1.94.62-.38,1.25-.72,1.9-1.04,3.28-1.62,6.97-2.53,10.88-2.53,7.44,0,14.11,3.3,18.61,8.51,1.41,1.61,2.6,3.4,3.54,5.33Z"/>
        <path class="cls-4" d="M47.4,15.11l-.03.02-1.18.68-1.33.77-2.67,1.56-2.61,1.51-2.67,1.54-1.06.62c0,.66-.16,1.26-.47,1.81-.42.8-1.14,1.46-2.04,2.02-.93.57-2.05,1.02-3.32,1.35h0c-4.9,1.27-11.58.69-14.82-1.73-.91-.68-1.54-1.5-1.82-2.45-.08-.32-.12-.66-.12-1v-9.89c.01-.21-.13-.41-.37-.62-.75-.59-2.49-1.15-4.45-1.72-.88-.24-1.8-.49-2.69-.73.56-.68,1.16-1.33,1.8-1.94,1.31-1.27,2.76-2.39,4.32-3.34.62-.38,1.25-.72,1.9-1.04,3.28-1.62,6.97-2.53,10.88-2.53,7.44,0,14.11,3.3,18.61,8.51,1.41,1.61,2.6,3.4,3.54,5.33.19.4.38.8.55,1.21h.01s.03.05.05.06Z"/>
        <path class="cls-8" d="M48.97,20.73l-1,3.11-1.08,3.3-.56,1.76-.52,1.64-.51,1.55-.5,1.54-.26.81-.34,1.08c0,1.04-.03,1.96-.1,2.75-.01.08-.02.16-.02.24-.08.63-.17,1.19-.32,1.66-.03.04-.06.07-.08.11-.08.09-.15.17-.22.25-.59.71-1.22,1.38-1.9,2.01-.09.09-.19.18-.28.27-.07.06-.13.12-.2.18-.69.21-1.54.32-2.56.38-.82.05-1.77.07-2.85.07h-.95l-1.63-.07-.29-.02-2.98-.12-3.03-.12-9.97-.42-2.58-.11h-.36c-1.07-.01-1.99-.08-2.79-.19-1.16-.18-2.05-.48-2.72-.93-.97-.62-1.53-1.53-1.86-2.79-.08-.31-.15-.62-.19-.97-.14-.8-.21-1.72-.25-2.75,0-.2,0-.41-.01-.63-.02-.01,0-.01,0-.01v-.8c-.02-.4-.02-.81-.02-1.24l.07-2.21.04-1.58.06-1.85v-.26l.09-3.38.1-3.38.1-3.18.08-3.12.03-.83c0-.4-1.34-.65-2.88-.86.02-.05.05-.1.1-.15.57-.92,1.21-1.79,1.91-2.62.56-.68,1.16-1.33,1.8-1.94,1.31-1.27,2.76-2.39,4.32-3.34.62-.38,1.25-.72,1.9-1.04,2.13-.33,4.31-.5,6.55-.5,8.4,0,16.28,2.37,22.94,6.48,1.41,1.61,2.6,3.4,3.54,5.33.19.4.38.8.55,1.21h.01s.03.05.05.06l-.03.02c.73,1.73,1.26,3.55,1.57,5.45.01.05.02.1.03.15Z"/>
        <path class="cls-7" d="M49.24,23.25l-.7,1.35-1.44,2.82-.77,1.48-.7,1.36-.3.59c0,.43,0,.84-.03,1.24,0,.59-.03,1.16-.07,1.68-.06.62-.14,1.18-.22,1.7h0c-.21,1.1-.49,2.03-.91,2.8-.05.09-.11.19-.16.27-.15.25-.33.48-.52.7-.25.3-.53.57-.84.79-.47.35-1.02.64-1.65.86-.79.29-1.7.48-2.77.59-.7.07-1.47.11-2.31.11l-.57.03-2.86.17h-.02l-3.04.17-3.09.18-4.26.25-5.19.3-.75.04c-.71,0-1.37-.04-2-.12-.07,0-.12-.03-.19-.03-.94-.15-1.79-.4-2.56-.74-.93-.41-1.74-.96-2.43-1.62-.61-.59-1.13-1.27-1.56-2.02-.09-.18-.19-.35-.27-.54-.41-.81-.74-1.72-.99-2.71-.04-.16-.08-.34-.11-.52-.08-.32-.15-.65-.19-.99-.15-.88-.24-1.82-.28-2.79v-.02c-.01-.39-.03-.78-.03-1.19l-.67-1.61-.1-.25-.08-.2-1.03-2.46-.16-.4-.99-2.38-1.1-2.66h-.02l-.48-1.17c.21-.83.47-1.64.79-2.43.55-1.5,1.27-2.92,2.11-4.26.02-.05.05-.1.1-.15.57-.92,1.21-1.79,1.91-2.62.56-.68,1.16-1.33,1.8-1.94,1.77-.59,3.59-1.06,5.46-1.4,2.36-.42,4.83-.66,7.31-.66,10.06,0,19.17,3.65,26.3,9.59.25.2.49.41.73.61h.01s.03.05.05.06l-.03.02c.73,1.73,1.26,3.55,1.57,5.45.01.05.02.1.03.15.13.83.22,1.67.27,2.52Z"/>
        <path class="cls-1" d="M49.28,24.64c0,.31-.01.61-.02.92-.04,1.13-.16,2.24-.35,3.32l-.39.82-1.49,3.09v.05c-.01.59-.04,1.12-.08,1.6-.03.33-.07.64-.12.92-.34.7-.72,1.39-1.12,2.05-.13.21-.25.42-.4.62-.35.24-.76.39-1.23.48-.05.02-.1.02-.14.03-.22.04-.46.07-.7.07-.86.08-1.86.03-3.01-.06h-.01c-.13,0-.26,0-.39-.02-.84-.06-1.74-.11-2.73-.15-.53-.02-1.1-.03-1.67-.03h-.03l-1.39.11h-.01l-3.12.22h-.01l-3.56.27-.52.04-4.16.31h-.01l-2.15.16-2.13.15c-.38,0-.73,0-1.09,0h-.02c-1.56-.03-2.94-.12-4.17-.36h-.01c-1.15-.19-2.14-.49-2.99-.95-.88-.42-1.61-1.03-2.2-1.8-.57-.75-.98-1.7-1.24-2.84v-.02c-.19-.92-.3-1.99-.3-3.2l-.21-.37-1.22-2.19-.18-.3-.1-.19-1.28-2.27-.63-1.14-.8-1.42-1.37-2.46-.08-.14c.1-.56.23-1.1.38-1.64.21-.83.47-1.64.79-2.43.55-1.5,1.27-2.92,2.11-4.26.02-.05.05-.1.1-.15,1.48-.74,3.01-1.37,4.6-1.89,1.85-.6,3.77-1.08,5.74-1.4,1.99-.33,4.04-.49,6.14-.49,9.36,0,17.93,3.34,24.55,8.89.3.24.59.5.88.74,1.13,1.02,2.21,2.11,3.2,3.26.01.05.02.1.03.15.13.83.22,1.67.27,2.52.03.46.04.92.04,1.39Z"/>
        <path class="cls-14" d="M49.26,25.56c-.04,1.13-.16,2.24-.35,3.32-.06.38-.13.75-.22,1.12-.29,1.31-.68,2.58-1.18,3.8-.09.25-.2.5-.31.75-.08-.04-.17-.08-.25-.11-.52-.23-1.09-.45-1.72-.67-.14-.06-.28-.1-.43-.14-.24-.09-.5-.18-.77-.26-.81-.25-1.7-.48-2.64-.69-.35-.07-.72-.13-1.1-.19-1.19-.21-2.47-.33-3.81-.34-.11-.02-.23-.02-.34-.02l-3.53.03-4.81.03h-.02l-10.3.08c-3.27,0-5.28.78-6.49,1.1h-.01c-1.28.34-1.68.14-1.79-2.1-.03-.62-.04-1.42-.04-2.4l-.77-.59-1.35-1.01-.82-.64-.17-.12-2.28-1.73-.34-.26-.72-.55-1.32-.99-1.24-.95c.06-.62.15-1.24.27-1.84H.41c.01-.09.02-.16.04-.24.1-.56.23-1.1.38-1.64.21-.83.47-1.64.79-2.43,1.57-.98,3.23-1.84,4.96-2.57,2.01-.85,4.12-1.53,6.3-2.01.59-.12,1.19-.25,1.81-.33,1.83-.31,3.71-.46,5.62-.46,8.27,0,15.86,2.87,21.88,7.63.91.71,1.79,1.47,2.61,2.28,1.13,1.07,2.19,2.21,3.17,3.42.19.25.38.5.57.76.24.31.48.63.72.96Z"/>
        <path class="cls-18" d="M48.69,30c-.29,1.31-.68,2.58-1.18,3.8-.09.25-.2.5-.31.75-.12.27-.24.54-.37.81-.34.7-.72,1.39-1.12,2.05-.13.21-.25.42-.4.62-.47.74-.99,1.46-1.55,2.14-.03.04-.06.07-.08.11-.08.09-.15.17-.22.25-.29-.15-.59-.32-.88-.5-.73-.4-1.5-.84-2.27-1.26-.17-.08-.33-.16-.48-.24-.88-.46-1.78-.87-2.69-1.19h-.02c-.2-.06-.4-.13-.61-.19-.78-.22-1.58-.36-2.35-.36l-1.51-.44-6.7-1.93h-.01l-4.11-1.2h-.03l-1.77-.52c-5.17,0-8.35,2.2-9.89,1.36-.61-.32-.96-1.11-1.09-2.68-.04-.44-.05-.94-.05-1.52l-1.61-.78-.07-.03h-.01l-1.16-.57-1.26-.61-.1-.04-.23-.12-2.7-1.31L.02,25.51c0-.29-.02-.58-.02-.87,0-.15,0-.3.01-.45,0-.73.05-1.45.13-2.16.06-.62.15-1.24.27-1.84H.41s.08-.07.12-.1c.26-.21.52-.4.78-.61h.02c1.62-1.17,3.34-2.2,5.17-3.05,2.13-1.02,4.4-1.8,6.75-2.31.34-.08.7-.16,1.06-.22,1.95-.37,3.96-.56,6-.56,7.25,0,13.91,2.35,19.27,6.31,1.55,1.15,3,2.43,4.32,3.82,1.08,1.14,2.09,2.38,2.99,3.67.07.1.14.19.21.28.51.74.98,1.5,1.42,2.28.06.1.12.2.17.3Z"/>
        <path class="cls-2" d="M47.51,33.8c-.09.25-.2.5-.31.75-.12.27-.24.54-.37.81-.34.7-.72,1.39-1.12,2.05-.13.21-.25.42-.4.62-.47.74-.99,1.46-1.55,2.14-.03.04-.06.07-.08.11-.08.09-.15.17-.22.25-.59.71-1.22,1.38-1.9,2.01-.11-.03-.22-.06-.33-.09-.98-.27-2-.5-2.99-.64-.82-.13-1.63-.22-2.39-.22l-.63-.18h-.01l-3.33-.96-2.05-.59-2.28-.66h-.02l-.74-.21-8.98-2.58-2.58-.74-1.93-.46-3.13-.74-.38-.1h-.02l-3.15-.72v-.02l-.56-.12-.29-.07-2.3-.54-.26-.07-1.95-1.6-.47-.39h0c-.24-.9-.42-1.81-.55-2.74-.12-.85-.19-1.71-.22-2.59,0-.29-.02-.58-.02-.87,0-.15,0-.3.01-.45.44-.42.9-.82,1.37-1.21.17-.16.34-.29.52-.43.17-.14.35-.28.53-.41,1.25-.95,2.57-1.8,3.97-2.53,1.79-.97,3.68-1.74,5.68-2.29h0c.38-.12.76-.23,1.16-.31,2.25-.56,4.62-.85,7.06-.85,6.15,0,11.87,1.85,16.6,5.03,2.35,1.58,4.47,3.48,6.26,5.64.9,1.08,1.73,2.22,2.46,3.43.07.1.12.18.18.28.44.73.85,1.48,1.22,2.25.17.34.32.67.48,1.01Z"/>
        <path class="cls-3" d="M45.71,37.41c-.13.21-.25.42-.4.62-.47.74-.99,1.46-1.55,2.14-.03.04-.06.07-.08.11-.08.09-.15.17-.22.25-.59.71-1.22,1.38-1.9,2.01-.09.09-.19.18-.28.27-.07.06-.13.12-.2.18-.76.69-1.57,1.33-2.42,1.91-.26.19-.53.37-.81.53-.95-.66-1.73-1.28-2.13-1.6h0s-.01-.01-.01-.01c-.19-.16-.28-.25-.28-.25l-2.34-.2-.29-.03-3.03-.26-3.13-.28-4.63-.41-7.35-.65h-.02s-2.59-1.26-2.59-1.26l-2.61-1.26-2.11-1.02-.45-.22-.56-.28-1.96-.95-1.58-.76c-.22-.39-.41-.8-.59-1.21h0c-.48-1.04-.88-2.1-1.19-3.21-.08-.24-.15-.48-.21-.73h0c-.24-.9-.42-1.81-.55-2.74.51-.59,1.05-1.15,1.62-1.7.47-.44.96-.88,1.47-1.29.09-.07.17-.14.25-.19.06-.07.12-.11.18-.14.81-.66,1.66-1.25,2.54-1.79,1.02-.65,2.09-1.22,3.21-1.7,1.19-.54,2.44-.99,3.74-1.34,2.24-.63,4.62-.96,7.06-.96,5.61,0,10.79,1.7,15.07,4.63h.01c2.73,1.87,5.1,4.24,6.97,6.97.62.88,1.16,1.82,1.67,2.78.18.36.36.72.51,1.07.17.35.32.68.47,1.03h0c.26.64.49,1.28.7,1.94Z"/>
        <path class="cls-6" d="M43.68,40.28c-.08.09-.15.17-.22.25-.59.71-1.22,1.38-1.9,2.01-.09.09-.19.18-.28.27-.07.06-.13.12-.2.18-.76.69-1.57,1.33-2.42,1.91-.26.19-.53.37-.81.53-.65.43-1.33.81-2.02,1.16-.07.04-.14.08-.21.11-.12-.02-.23-.02-.33-.02l-2.26-.29h-.02l-2.81-.37-2.83-.37-1.32-.17-10.4-1.34c-.67,0-1.38-.04-2.13-.14-.9-.08-1.85-.22-2.8-.41-.82-.15-1.65-.34-2.45-.54-.1-.09-.2-.18-.3-.26-.8-.74-1.55-1.52-2.24-2.36-.7-.84-1.35-1.73-1.93-2.66-.37-.58-.71-1.17-1.02-1.78-.22-.39-.41-.8-.59-1.21h0c-.48-1.04-.88-2.1-1.19-3.21.08-.12.17-.23.26-.34.97-1.3,2.09-2.48,3.3-3.52.04-.06.09-.1.13-.13h.02c.43-.4.86-.74,1.33-1.07.06-.06.11-.1.17-.14.22-.16.45-.33.7-.48,1.97-1.33,4.14-2.38,6.46-3.08,2.2-.66,4.52-1,6.95-1,4.79,0,9.28,1.41,13.02,3.83,2.76,1.78,5.14,4.11,6.95,6.85.22.32.43.63.64.96.95,1.61,1.73,3.34,2.31,5.16.07.21.12.41.18.63.1.34.18.69.26,1.04Z"/>
        <path class="cls-9" d="M41.28,42.81c-.07.06-.13.12-.2.18-.76.69-1.57,1.33-2.42,1.91-.26.19-.53.37-.81.53-.65.43-1.33.81-2.02,1.16-.07.04-.14.08-.21.11-.44.23-.89.43-1.35.62h0c-.44-.32-.86-.64-1.23-.93t-.02-.01v-.02c-.82-.61-1.39-1.08-1.39-1.08l-1.46.05-2.81.1-1.3.05-5.25.2-4.45.16c-.28.02-.63.02-1.05,0h-.02c-.58-.01-1.26-.05-2.02-.12-.51-.04-1.04-.08-1.59-.13-.4-.25-.8-.51-1.18-.79-.78-.53-1.52-1.12-2.22-1.75-.1-.09-.2-.18-.3-.26-.8-.74-1.55-1.52-2.24-2.36-.7-.84-1.35-1.73-1.93-2.66-.37-.58-.71-1.17-1.02-1.78-.22-.39-.41-.8-.59-1.21h0c.39-.66.82-1.28,1.28-1.88.62-.81,1.29-1.56,2.02-2.25v-.02c.21-.2.41-.39.62-.57.39-.36.78-.69,1.2-1.01h.01s.03-.02.04-.04c.33-.26.68-.49,1.02-.73,2.03-1.39,4.33-2.42,6.81-3.02,1.63-.4,3.35-.62,5.12-.62,3.5,0,6.8.84,9.7,2.35h0c2.49,1.28,4.69,3.04,6.46,5.16.98,1.12,1.82,2.36,2.51,3.67.48.88.89,1.8,1.23,2.73.03.09.06.16.09.22.23.69.44,1.41.62,2.12.12.51.22,1.03.3,1.56.02.12.04.23.05.36Z"/>
        <path class="cls-11" d="M38.66,44.9c-.26.19-.53.37-.81.53-.65.43-1.33.81-2.02,1.16-.07.04-.14.08-.21.11-.44.23-.89.43-1.35.62h0c-.45.2-.9.38-1.37.54-.79.29-1.6.53-2.43.72l-.55-.17-2.75-.82-6.36-1.91-2.75-.83s-1.15.46-2.75.99h-.02c-.62.21-1.29.43-2.01.65h0c-.54-.27-1.07-.58-1.59-.9-.4-.25-.8-.51-1.18-.79-.78-.53-1.52-1.12-2.22-1.75-.1-.09-.2-.18-.3-.26-.8-.74-1.55-1.52-2.24-2.36-.7-.84-1.35-1.73-1.93-2.66.18-.35.36-.69.56-1.02.47-.81.99-1.59,1.6-2.32.01-.04.05-.08.1-.11-.02-.01,0-.01,0-.01.17-.24.37-.46.56-.66v-.02c.56-.6,1.14-1.18,1.77-1.72.22-.17.43-.35.66-.53.04-.04.09-.07.14-.11,3.09-2.37,6.96-3.8,11.12-3.8,4.73,0,9.04,1.78,12.3,4.69,1.56,1.42,2.9,3.11,3.9,4.99.09.14.17.29.24.44.12.25.24.51.35.79.46.99.81,2.03,1.06,3.1.03.11.06.22.08.33.12.51.21,1.04.28,1.56.07.51.11,1.02.14,1.53Z"/>
        <path class="cls-12" d="M35.85,45.84c0,.23-.01.48-.02.75-.07.04-.14.08-.21.11-.44.23-.89.43-1.35.62h0c-.45.2-.9.38-1.37.54-.79.29-1.6.53-2.43.72-.21.06-.42.11-.63.15-1,.22-2.03.37-3.08.46h-.03l-.16-.03-5.69-.91h-.03l-.79-.12h-.03l-1.82-.31c-.34,0-.85.06-1.46.16-1.2-.4-2.36-.9-3.47-1.48h0s0-.01,0-.01c-.54-.27-1.07-.58-1.59-.9-.4-.25-.8-.51-1.18-.79-.78-.53-1.52-1.12-2.22-1.75-.1-.09-.2-.18-.3-.26-.8-.74-1.55-1.52-2.24-2.36.22-.61.48-1.2.78-1.76.11-.24.23-.47.37-.69.06-.11.13-.21.18-.32.25-.4.52-.78.8-1.17.58-.75,1.22-1.47,1.91-2.11h.02c.06-.07.1-.11.16-.16.07-.05.12-.12.19-.16.28-.25.55-.47.84-.67h0s.01-.02.01-.02c2.6-1.94,5.82-3.08,9.33-3.08,2.72,0,5.25.69,7.46,1.9h.02c1.89,1.04,3.54,2.46,4.85,4.16.51.66.96,1.37,1.35,2.11h.01c.07.14.14.27.21.41.41.81.74,1.66.99,2.54h.01c.01.07.04.14.06.21.16.59.3,1.2.39,1.82.02.12.03.26.05.38h0c.09.67.13,1.33.13,2.02Z"/>
        <path class="cls-16" d="M33.03,45.69c0,.22,0,.45-.02.67v.02h0c-.02.5-.06,1-.12,1.48-.79.29-1.6.53-2.43.72-.21.06-.42.11-.63.15-1,.22-2.03.37-3.08.46h-.03c-.06.01-.12.01-.18.01-.33.03-.66.05-.99.06l-4.68-1.01h-.03l-.68-.15-.11.02h-.03s-1.66.35-1.66.35c-.55-.14-1.09-.3-1.62-.49-1.2-.4-2.36-.9-3.47-1.48h0s0-.01,0-.01c-.54-.27-1.07-.58-1.59-.9-.4-.25-.8-.51-1.18-.79-.78-.53-1.52-1.12-2.22-1.75-.1-.09-.2-.18-.3-.26.11-.46.24-.91.4-1.33.15-.43.33-.84.52-1.24.16-.35.36-.67.55-1h0c.19-.32.4-.62.62-.93.55-.75,1.19-1.45,1.91-2.07.41-.36.86-.7,1.33-1.01,2.01-1.32,4.42-2.09,7.01-2.09.51,0,1.01.03,1.49.1h.03c1.47.16,2.84.58,4.11,1.2h.01c2,.97,3.69,2.44,4.92,4.26.21.3.42.63.6.96.15.26.28.54.41.81.19.43.37.88.52,1.34h.01c.16.5.29,1.01.39,1.55h0c.15.77.23,1.55.23,2.35Z"/>
        <path class="cls-17" d="M30.2,45.98v.04c0,.81-.09,1.61-.29,2.39-.02.11-.05.22-.08.32-1,.22-2.03.37-3.08.46h-.03c-.06.01-.12.01-.18.01-.33.03-.66.05-.99.06-.3.01-.61.02-.91.02-.62,0-1.24-.02-1.85-.08h-.02l-2.45-.68-.8.22h0c-.39-.08-.77-.17-1.15-.27-.55-.14-1.09-.3-1.62-.49-1.2-.4-2.36-.9-3.47-1.48h0s0-.01,0-.01c-.54-.27-1.07-.58-1.59-.9-.4-.25-.8-.51-1.18-.79.04-.42.12-.82.23-1.21.08-.42.2-.81.37-1.2.05-.19.14-.37.23-.55.21-.47.46-.92.73-1.36.3-.44.63-.85,1-1.24.44-.49.94-.95,1.5-1.32.97-.7,2.07-1.22,3.26-1.51.8-.22,1.64-.33,2.5-.33,2.75,0,5.22,1.1,7,2.87.07.07.15.15.22.25h.02c.19.21.37.41.55.65.51.64.93,1.34,1.26,2.11.17.36.3.73.41,1.12.02.05.03.09.05.15.19.67.31,1.38.34,2.1.03.21.04.43.04.65Z"/>
        <path class="cls-15" d="M27.38,45.98c0,.56-.07,1.1-.22,1.61-.14.55-.34,1.07-.6,1.57-.01.01-.01.02-.02.04-.33.03-.66.05-.99.06-.3.01-.61.02-.91.02-.62,0-1.24-.02-1.85-.08h-.02c-1.11-.07-2.19-.23-3.25-.46h0c-.39-.08-.77-.17-1.15-.27-.55-.14-1.09-.3-1.62-.49-1.2-.4-2.36-.9-3.47-1.48h0c-.02-.18-.02-.36-.02-.52,0-.08,0-.18.01-.26,0-.61.1-1.18.26-1.72.14-.5.32-.95.55-1.39,0,0,.02,0,.02-.03.16-.29.34-.57.55-.85.67-.91,1.56-1.65,2.59-2.13h.02c.33-.16.67-.3,1.03-.4h.01c.64-.19,1.32-.29,2.02-.29.82,0,1.6.13,2.31.39h.01c.27.07.5.18.75.3h.02c1.19.57,2.18,1.44,2.87,2.54.14.21.26.43.37.66.05.1.11.21.15.31.32.71.51,1.5.56,2.32.02.07.02.14.02.22.01.11.01.22.01.33Z"/>
      </g>
      <g>
        <g>
          <path class="cls-10" d="M30.8,11.1h-12.5c-4.06,0-7.29,3.23-7.29,7.29v12.5c0,4.06,3.23,7.29,7.29,7.29h12.5c4.06,0,7.29-3.23,7.29-7.29v-12.5c0-4.06-3.23-7.29-7.29-7.29Z"/>
          <circle class="cls-13" cx="31.84" cy="16.31" r="1.04"/>
        </g>
        <circle class="cls-10" cx="24.55" cy="24.64" r="6.25"/>
      </g>
    </g>
  </g>
</svg>