<?xml version="1.0" encoding="UTF-8"?>
<svg id="Layer_2" data-name="Layer 2" xmlns="http://www.w3.org/2000/svg" viewBox="0 0 49.29 49.29">
  <defs>
    <style>
      .cls-1 {
        fill: #fff;
        fill-rule: evenodd;
      }

      .cls-2 {
        fill: #212121;
      }

      .cls-3 {
        fill: #29b6f6;
      }
    </style>
  </defs>
  <g id="Layer_1-2" data-name="Layer 1">
    <g>
      <g>
        <path class="cls-3" d="M24.64,0C11.03,0,0,11.03,0,24.64s11.03,24.64,24.64,24.64,24.64-11.03,24.64-24.64S38.25,0,24.64,0Z"/>
        <path class="cls-2" d="M24.64,0C11.03,0,0,11.03,0,24.64s11.03,24.64,24.64,24.64,24.64-11.03,24.64-24.64S38.25,0,24.64,0Z"/>
      </g>
      <g>
        <path class="cls-1" d="M38.91,38.61h-8.99L10.38,10.68h8.99l19.54,27.93ZM30.99,36.24h3.58L18.3,13.05h-3.58l16.27,23.2Z"/>
        <polygon class="cls-1" points="13.23 38.61 23.29 26.96 21.97 25.21 10.37 38.61 13.23 38.61"/>
        <polygon class="cls-1" points="25.22 21.46 26.48 23.26 37.35 10.68 34.55 10.68 25.22 21.46"/>
      </g>
    </g>
  </g>
</svg>